<svg
    xmlns="http://www.w3.org/2000/svg"
    viewBox="0 0 25 25"
    id="vector">
    <defs>
        <clipPath id="clip_path">
            <path d="M 0 0 L 25 0 L 25 25 L 0 25 Z"/>
        </clipPath>
        <clipPath id="clip_path_1">
            <path d="M 0 0 L 25 0 L 25 25 L 0 25 Z"/>
        </clipPath>
        <clipPath id="clip_path_2">
            <path d="M 0 0 L 25 0 L 25 25 L 0 25 Z"/>
        </clipPath>
        <clipPath id="clip_path_3">
            <path d="M 0 0 L 25 0 L 25 25 L 0 25 Z"/>
        </clipPath>
        <clipPath id="clip_path_4">
            <path d="M 0 0 L 25 0 L 25 25 L 0 25 Z"/>
        </clipPath>
        <clipPath id="clip_path_5">
            <path d="M 0 0 L 25 0 L 25 25 L 0 25 Z"/>
        </clipPath>
        <clipPath id="clip_path_6">
            <path d="M 0 0 L 25 0 L 25 25 L 0 25 Z"/>
        </clipPath>
        <clipPath id="clip_path_7">
            <path d="M 0 0 L 25 0 L 25 25 L 0 25 Z"/>
        </clipPath>
        <clipPath id="clip_path_8">
            <path d="M 0 0 L 25 0 L 25 25 L 0 25 Z"/>
        </clipPath>
        <clipPath id="clip_path_9">
            <path d="M 0 0 L 25 0 L 25 25 L 0 25 Z"/>
        </clipPath>
        <clipPath id="clip_path_10">
            <path d="M 0 0 L 25 0 L 25 25 L 0 25 Z"/>
        </clipPath>
    </defs>
    <g id="group">
        <path
            id="path"
            clip-path="url(#clip_path)"
            d="M 5.127 15.852 C 3.915 15.852 2.93 16.838 2.93 18.049 C 2.93 19.261 3.915 20.247 5.127 20.247 C 6.338 20.247 7.324 19.261 7.324 18.049 C 7.324 16.838 6.339 15.852 5.127 15.852 Z"
            fill="#000000"/>
        <path
            id="path_1"
            clip-path="url(#clip_path_1)"
            d="M 8.755 14.423 C 6.755 12.423 3.501 12.423 1.501 14.423 C -0.499 16.422 -0.499 19.677 1.501 21.676 L 4.61 24.785 C 4.753 24.928 4.94 25 5.128 25 C 5.315 25 5.503 24.928 5.646 24.785 L 8.755 21.676 C 10.755 19.677 10.755 16.422 8.755 14.423 Z M 5.128 21.712 C 3.109 21.712 1.466 20.069 1.466 18.049 C 1.466 16.03 3.109 14.387 5.128 14.387 C 7.147 14.387 8.79 16.03 8.79 18.049 C 8.79 20.069 7.147 21.712 5.128 21.712 Z"
            fill="#000000"/>
        <path
            id="path_2"
            clip-path="url(#clip_path_2)"
            d="M 19.873 2.93 C 18.662 2.93 17.676 3.915 17.676 5.127 C 17.676 6.338 18.662 7.324 19.873 7.324 C 21.085 7.324 22.07 6.338 22.07 5.127 C 22.07 3.915 21.085 2.93 19.873 2.93 Z"
            fill="#000000"/>
        <path
            id="path_3"
            clip-path="url(#clip_path_3)"
            d="M 23.5 1.501 C 21.5 -0.499 18.246 -0.499 16.246 1.501 C 14.246 3.501 14.246 6.755 16.246 8.755 L 19.355 11.864 C 19.498 12.007 19.686 12.079 19.873 12.079 C 20.061 12.079 20.248 12.007 20.391 11.864 L 23.5 8.755 C 25.5 6.755 25.5 3.501 23.5 1.501 Z M 19.873 8.79 C 17.854 8.79 16.211 7.147 16.211 5.128 C 16.211 3.109 17.854 1.466 19.873 1.466 C 21.892 1.466 23.535 3.109 23.535 5.128 C 23.535 7.147 21.892 8.79 19.873 8.79 Z"
            fill="#000000"/>
        <path
            id="path_4"
            clip-path="url(#clip_path_4)"
            d="M 13.835 24.267 C 13.835 24.672 13.507 25 13.102 25 C 12.698 25 12.37 24.672 12.37 24.267 C 12.37 23.863 12.698 23.535 13.102 23.535 C 13.507 23.535 13.835 23.863 13.835 24.267 Z"
            fill="#000000"/>
        <path
            id="path_5"
            clip-path="url(#clip_path_5)"
            d="M 17.22 24.267 C 17.22 24.672 16.892 25 16.488 25 C 16.083 25 15.755 24.672 15.755 24.267 C 15.755 23.863 16.083 23.535 16.488 23.535 C 16.892 23.535 17.22 23.863 17.22 24.267 Z"
            fill="#000000"/>
        <path
            id="path_6"
            clip-path="url(#clip_path_6)"
            d="M 10.449 24.267 C 10.449 24.672 10.121 25 9.717 25 C 9.312 25 8.984 24.672 8.984 24.267 C 8.984 23.863 9.312 23.535 9.717 23.535 C 10.121 23.535 10.449 23.863 10.449 24.267 Z"
            fill="#000000"/>
        <path
            id="path_7"
            clip-path="url(#clip_path_7)"
            d="M 20.605 21.045 C 20.605 21.449 20.278 21.777 19.873 21.777 C 19.468 21.777 19.141 21.449 19.141 21.045 C 19.141 20.64 19.468 20.313 19.873 20.313 C 20.278 20.313 20.605 20.64 20.605 21.045 Z"
            fill="#000000"/>
        <path
            id="path_8"
            clip-path="url(#clip_path_8)"
            d="M 20.605 24.267 C 20.605 24.672 20.278 25 19.873 25 C 19.468 25 19.141 24.672 19.141 24.267 C 19.141 23.863 19.468 23.535 19.873 23.535 C 20.278 23.535 20.605 23.863 20.605 24.267 Z"
            fill="#000000"/>
        <path
            id="path_9"
            clip-path="url(#clip_path_9)"
            d="M 20.605 14.6 C 20.605 15.004 20.278 15.332 19.873 15.332 C 19.468 15.332 19.141 15.004 19.141 14.6 C 19.141 14.195 19.468 13.867 19.873 13.867 C 20.278 13.867 20.605 14.195 20.605 14.6 Z"
            fill="#000000"/>
        <path
            id="path_10"
            clip-path="url(#clip_path_10)"
            d="M 20.605 17.822 C 20.605 18.227 20.278 18.555 19.873 18.555 C 19.468 18.555 19.141 18.227 19.141 17.822 C 19.141 17.418 19.468 17.09 19.873 17.09 C 20.278 17.09 20.605 17.418 20.605 17.822 Z"
            fill="#000000"/>
    </g>
</svg>
