<svg
    xmlns="http://www.w3.org/2000/svg"
    viewBox="0 0 512 512"
    id="vector">
    <path
        id="path"
        d="M 110.034 110.006 M 75.032 110.006 C 75.032 100.726 78.722 91.817 85.284 85.256 C 91.845 78.694 100.754 75.004 110.034 75.004 C 119.314 75.004 128.223 78.694 134.784 85.256 C 141.346 91.817 145.036 100.726 145.036 110.006 C 145.059 117.412 142.732 124.637 138.39 130.637 C 134.049 136.636 127.913 141.106 120.871 143.399 C 113.83 145.692 106.238 145.692 99.197 143.399 C 92.155 141.106 86.019 136.636 81.678 130.637 C 77.336 124.637 75.009 117.412 75.032 110.006"
        fill="#0e1256"/>
    <path
        id="path_1"
        d="M 187.819 187.789 C 208.596 167.012 220.039 139.388 220.039 110.004 C 220.039 49.348 170.691 0 110.034 0 C 49.378 0 0.03 49.348 0.03 110.004 C 0.03 139.388 11.472 167.012 32.25 187.789 L 110.034 265.573 Z M 45.032 110.006 C 45.032 74.164 74.192 45.004 110.034 45.004 C 145.876 45.004 175.036 74.164 175.036 110.006 C 175.036 145.848 145.876 175.008 110.034 175.008 C 74.192 175.008 45.032 145.848 45.032 110.006 Z"
        fill="#0e1256"/>
    <path
        id="path_2"
        d="M 432.026 318.913 C 387.912 318.913 352.022 354.803 352.022 398.917 C 352.022 420.287 360.343 440.378 375.453 455.489 L 432.026 512.06 L 488.598 455.489 C 503.708 440.377 512.03 420.286 512.03 398.917 C 512.03 354.803 476.141 318.913 432.026 318.913 Z"
        fill="#0e1256"/>
    <path
        id="path_3"
        d="M 125.034 415.456 C 125.034 378.764 154.885 348.913 191.577 348.913 L 247.241 348.913 C 280.202 348.913 307.017 322.098 307.017 289.137 C 307.017 256.176 280.202 229.361 247.241 229.361 L 189.04 229.361 L 189.04 259.361 L 247.242 259.361 C 263.661 259.361 277.018 272.718 277.018 289.137 C 277.018 305.556 263.661 318.913 247.242 318.913 L 191.578 318.913 C 138.344 318.913 95.035 362.223 95.035 415.457 C 95.035 468.691 138.343 512 191.578 512 L 359.032 512 L 359.032 482 L 191.578 482 C 154.885 482 125.034 452.148 125.034 415.456 Z"
        fill="#0e1256"/>
</svg>
