<svg
    xmlns="http://www.w3.org/2000/svg"
    viewBox="0 0 25 25"
    id="vector">
    <path
        id="path"
        d="M 19.271 21.971 L 19.271 18.037 C 19.271 16.685 18.688 15.399 17.67 14.508 L 15.374 12.5 L 17.67 10.492 C 18.688 9.601 19.271 8.315 19.271 6.963 L 19.271 3.029 C 19.876 2.813 20.313 2.241 20.313 1.563 C 20.313 0.701 19.611 0 18.75 0 L 6.25 0 C 5.388 0 4.688 0.701 4.688 1.563 C 4.688 2.241 5.124 2.813 5.729 3.029 L 5.729 6.963 C 5.729 8.315 6.313 9.601 7.33 10.492 L 9.626 12.5 L 7.33 14.508 C 6.312 15.399 5.729 16.685 5.729 18.037 L 5.729 21.971 C 5.124 22.186 4.688 22.759 4.688 23.438 C 4.688 24.299 5.388 25 6.25 25 L 18.75 25 C 19.611 25 20.313 24.299 20.313 23.438 C 20.313 22.759 19.876 22.186 19.271 21.971 Z M 18.229 21.875 L 6.771 21.875 L 6.771 18.037 C 6.771 16.985 7.225 15.985 8.016 15.293 L 10.759 12.892 C 10.873 12.793 10.938 12.65 10.938 12.5 C 10.938 12.35 10.873 12.207 10.759 12.108 L 8.016 9.707 C 7.225 9.015 6.771 8.015 6.771 6.964 L 6.771 3.125 L 18.229 3.125 L 18.229 6.963 C 18.229 8.015 17.775 9.015 16.984 9.707 L 14.241 12.108 C 14.127 12.207 14.063 12.35 14.063 12.5 C 14.063 12.65 14.127 12.793 14.241 12.892 L 16.984 15.293 C 17.776 15.985 18.229 16.985 18.229 18.036 L 18.229 21.875 Z"
        fill="#000000"/>
    <path
        id="path_1"
        d="M 17.074 19.988 L 12.907 14.779 C 12.709 14.532 12.292 14.532 12.094 14.779 L 7.927 19.988 C 7.802 20.144 7.778 20.358 7.865 20.538 C 7.951 20.719 8.133 20.833 8.333 20.833 L 16.667 20.833 C 16.867 20.833 17.049 20.719 17.137 20.538 C 17.223 20.358 17.199 20.144 17.074 19.988 Z"
        fill="#000000"/>
    <path
        id="path_2"
        d="M 15.065 8.655 C 14.984 8.46 14.794 8.333 14.583 8.333 L 10.417 8.333 C 10.206 8.333 10.016 8.46 9.935 8.655 C 9.854 8.85 9.899 9.073 10.048 9.223 L 12.131 11.306 C 12.233 11.407 12.367 11.458 12.5 11.458 C 12.633 11.458 12.767 11.407 12.869 11.306 L 14.952 9.223 C 15.101 9.074 15.146 8.85 15.065 8.655 Z"
        fill="#000000"/>
</svg>
