<svg
    xmlns="http://www.w3.org/2000/svg"
    viewBox="0 0 32 32"
    id="vector">
    <path
        id="path"
        d="M 14.5 9.908 C 10.865 9.908 7.908 12.865 7.908 16.5 C 7.908 20.135 10.865 23.092 14.5 23.092 C 18.135 23.092 21.092 20.135 21.092 16.5 C 21.092 12.865 18.135 9.908 14.5 9.908 Z M 17.688 15.813 L 14.285 19.215 C 14.142 19.358 13.955 19.43 13.768 19.43 C 13.58 19.43 13.393 19.358 13.25 19.215 L 11.053 17.018 C 10.766 16.732 10.766 16.268 11.053 15.982 C 11.339 15.696 11.802 15.696 12.088 15.982 L 13.768 17.662 L 16.652 14.777 C 16.938 14.491 17.402 14.491 17.688 14.777 C 17.974 15.063 17.974 15.527 17.688 15.813 Z"
        fill="#000000"/>
    <path
        id="path_1"
        d="M 25.858 14.344 C 25.369 13.997 25.22 13.35 25.47 12.806 C 25.835 12.008 25.792 11.078 25.353 10.318 C 24.914 9.558 24.081 9.055 23.209 8.973 C 22.612 8.917 22.139 8.443 22.082 7.847 C 22.001 6.974 21.498 6.141 20.737 5.702 C 19.977 5.265 19.047 5.189 18.25 5.554 C 17.709 5.804 17.06 5.631 16.712 5.143 C 16.205 4.427 15.378 4 14.5 4 C 13.622 4 12.796 4.427 12.288 5.142 C 11.942 5.631 11.296 5.835 10.75 5.586 C 9.952 5.22 9.022 5.263 8.262 5.702 C 7.502 6.141 6.999 6.974 6.918 7.847 C 6.861 8.443 6.388 8.917 5.791 8.973 C 4.918 9.055 4.086 9.558 3.647 10.319 C 3.208 11.078 3.164 12.008 3.53 12.806 C 3.78 13.35 3.607 13.997 3.119 14.344 C 2.403 14.851 2 15.677 2 16.556 C 2 17.434 2.427 18.261 3.142 18.767 C 3.63 19.115 3.78 19.762 3.53 20.307 C 3.164 21.103 3.208 22.032 3.647 22.794 C 4.086 23.554 4.918 24.057 5.791 24.138 C 6.388 24.195 6.861 24.668 6.918 25.265 C 6.999 26.137 7.502 26.97 8.263 27.409 C 9.023 27.848 9.953 27.892 10.75 27.526 C 11.293 27.278 11.941 27.37 12.288 27.857 C 12.795 28.573 13.622 29 14.5 29 C 15.378 29 16.205 28.573 16.712 27.858 C 17.06 27.37 17.708 27.276 18.25 27.526 C 19.046 27.889 19.977 27.848 20.738 27.409 C 21.498 26.97 22.001 26.137 22.082 25.265 C 22.139 24.668 22.612 24.195 23.209 24.138 C 24.081 24.057 24.914 23.554 25.354 22.793 C 25.792 22.032 25.835 21.103 25.47 20.307 C 25.221 19.762 25.37 19.115 25.857 18.768 C 26.573 18.261 27 17.434 27 16.556 C 27 15.678 26.573 14.851 25.858 14.344 Z M 14.5 24.557 C 10.058 24.557 6.443 20.942 6.443 16.5 C 6.443 12.058 10.057 8.443 14.5 8.443 C 18.942 8.443 22.557 12.058 22.557 16.5 C 22.557 20.942 18.942 24.557 14.5 24.557 Z"
        fill="#000000"/>
</svg>
